<svg width="50" height="30" viewBox="0 0 50 30" fill="none" xmlns="http://www.w3.org/2000/svg">
<path d="M12.705 0L19.95 4.935V5.9325L15.015 13.23H14.0175L6.7725 8.295V7.2975L11.7075 0H12.705ZM4.935 10.08H5.9325L13.1775 15.015V16.0125L4.1475 29.4H3.3075L2.625 28.9275V28.0875L6.3 22.68L0 18.375V17.3775L4.935 10.08ZM27.4194 0L34.6644 4.935V5.9325L29.7294 13.23H28.7319L21.4869 8.295V7.2975L26.4219 0H27.4194ZM19.6494 10.08H20.6469L27.8919 15.015V16.0125L18.8619 29.4H18.0219L17.3394 28.9275V28.0875L21.0144 22.68L14.7144 18.375V17.3775L19.6494 10.08ZM42.1337 0L49.3787 4.935V5.9325L44.4437 13.23H43.4462L36.2012 8.295V7.2975L41.1362 0H42.1337ZM34.3637 10.08H35.3612L42.6062 15.015V16.0125L33.5762 29.4H32.7362L32.0537 28.9275V28.0875L35.7287 22.68L29.4287 18.375V17.3775L34.3637 10.08Z" fill="#171717"/>
</svg>
